<svg version="1.1" viewBox="0.0 0.0 1573.8083989501313 672.9160104986877" fill="none" stroke="none" stroke-linecap="square" stroke-miterlimit="10" xmlns:xlink="http://www.w3.org/1999/xlink" xmlns="http://www.w3.org/2000/svg"><clipPath id="p.0"><path d="m0 0l1573.8083 0l0 672.916l-1573.8083 0l0 -672.916z" clip-rule="nonzero"/></clipPath><g clip-path="url(#p.0)"><path fill="#000000" fill-opacity="0.0" d="m0 0l1573.8083 0l0 672.916l-1573.8083 0z" fill-rule="evenodd"/><path fill="#1155cc" d="m45.986877 138.2003l0 0c0 -22.758652 18.449524 -41.208176 41.208176 -41.208176l1404.9852 0c10.929077 0 21.410522 4.3415604 29.13855 12.069595c7.7280273 7.7280273 12.06958 18.209488 12.06958 29.13858l0 164.82774c0 22.758636 -18.449463 41.20816 -41.20813 41.20816l-1404.9852 0c-22.758652 0 -41.208176 -18.449524 -41.208176 -41.20816z" fill-rule="evenodd"/><path stroke="#000000" stroke-width="1.0" stroke-linejoin="round" stroke-linecap="butt" d="m45.986877 138.2003l0 0c0 -22.758652 18.449524 -41.208176 41.208176 -41.208176l1404.9852 0c10.929077 0 21.410522 4.3415604 29.13855 12.069595c7.7280273 7.7280273 12.06958 18.209488 12.06958 29.13858l0 164.82774c0 22.758636 -18.449463 41.20816 -41.20813 41.20816l-1404.9852 0c-22.758652 0 -41.208176 -18.449524 -41.208176 -41.20816z" fill-rule="evenodd"/><path fill="#000000" fill-opacity="0.0" d="m45.985565 92.456696l1487.4015 0l0 247.24408l-1487.4015 0z" fill-rule="evenodd"/><path fill="#ffffff" d="m186.53244 169.1442q12.6875 8.296875 20.5 22.125q7.8125 13.8125 7.8125 33.828125q0 17.578125 -6.984375 30.625q-6.96875 13.03125 -18.5 21.328125q-11.71875 8.296875 -26.609375 12.359375q-14.890625 4.046875 -31.203125 4.046875l-69.828125 0l0 -7.625q3.125 -0.09375 7.8125 -0.578125q4.6875 -0.484375 6.25 -1.171875q3.515625 -1.46875 4.875 -3.953125q1.375 -2.5 1.375 -6.015625l0 -98.234375q0 -3.328125 -1.265625 -6.0q-1.265625 -2.6875 -4.984375 -4.359375q-3.703125 -1.65625 -7.859375 -2.234375q-4.140625 -0.59375 -6.390625 -0.78125l0 -7.625l73.734375 0q11.8125 0 25.28125 3.03125q13.484375 3.03125 25.984375 11.234375zm-19.921875 99.3125q4.78125 -7.8125 6.96875 -18.59375q2.203125 -10.796875 2.203125 -24.859375q0 -13.78125 -2.9375 -25.109375q-2.921875 -11.328125 -8.578125 -19.328125q-5.671875 -8.015625 -14.125 -12.40625q-8.4375 -4.390625 -19.171875 -4.390625q-3.421875 0 -7.765625 0.15625q-4.34375 0.140625 -6.5 0.234375l0 105.171875q0 3.515625 0.921875 6.203125q0.9375 2.6875 3.1875 4.734375q2.234375 2.046875 5.5 3.171875q3.28125 1.125 8.5625 1.125q11.03125 0 18.9375 -4.09375q7.90625 -4.109375 12.796875 -12.015625zm184.76562 -78.21875l-7.421875 0q-2.828125 -7.921875 -9.765625 -16.015625q-6.9375 -8.109375 -13.765625 -9.578125q-2.9375 -0.6875 -8.171875 -0.828125q-5.21875 -0.140625 -8.625 -0.140625l-20.125 0l0 53.515625l14.265625 0q5.359375 0 9.75 -1.265625q4.40625 -1.28125 8.015625 -4.890625q2.25 -2.25 4.546875 -7.90625q2.296875 -5.671875 2.96875 -9.875l7.421875 0l0 57.8125l-7.421875 0q-0.578125 -4.09375 -2.96875 -10.296875q-2.390625 -6.203125 -4.546875 -8.546875q-3.21875 -3.515625 -7.625 -4.828125q-4.390625 -1.328125 -10.140625 -1.328125l-14.265625 0l0 39.953125q0 6.25 0.921875 9.90625q0.9375 3.65625 3.46875 5.609375q2.453125 1.859375 6.6875 2.453125q4.25 0.578125 11.578125 0.578125q3.421875 0 8.203125 -0.09375q4.78125 -0.09375 8.40625 -0.59375q4.09375 -0.484375 7.65625 -1.453125q3.5625 -0.984375 5.328125 -2.84375q4.6875 -4.78125 10.546875 -14.59375q5.859375 -9.8125 7.71875 -14.703125l7.125 0l-2.640625 43.171875l-129.98438 0l0 -7.625q2.734375 -0.1875 7.421875 -0.765625q4.6875 -0.59375 6.640625 -1.375q3.71875 -1.5625 4.984375 -3.953125q1.265625 -2.390625 1.265625 -6.109375l0 -97.75q0 -3.515625 -1.078125 -5.8125q-1.0625 -2.296875 -5.171875 -4.15625q-2.53125 -1.171875 -7.125 -2.140625q-4.59375 -0.984375 -6.9375 -1.265625l0 -7.625l122.859375 0l0 35.359375zm79.48828 106.9375q-12.6875 0 -23.6875 -3.140625q-10.984375 -3.125 -18.59375 -7.421875l-6.734375 6.84375l-8.3125 0l-1.265625 -50.09375l8.40625 0q2.828125 7.125 7.21875 15.03125q4.390625 7.90625 10.15625 14.15625q5.953125 6.546875 13.328125 10.65625q7.375 4.09375 17.234375 4.09375q13.28125 0 20.359375 -6.484375q7.09375 -6.5 7.09375 -16.359375q0 -8.109375 -6.015625 -13.625q-6.0 -5.515625 -18.59375 -9.53125q-8.203125 -2.625 -15.09375 -4.875q-6.890625 -2.25 -12.9375 -4.59375q-13.96875 -5.5625 -20.765625 -15.90625q-6.78125 -10.359375 -6.78125 -23.15625q0 -8.109375 3.515625 -15.578125q3.515625 -7.46875 10.265625 -13.421875q6.4375 -5.5625 16.5 -9.078125q10.0625 -3.515625 21.875 -3.515625q11.515625 0 21.578125 3.171875q10.0625 3.171875 15.828125 6.390625l5.953125 -5.859375l8.5 0l0.78125 47.265625l-8.40625 0q-2.921875 -7.609375 -6.890625 -15.5625q-3.953125 -7.96875 -8.34375 -13.25q-4.78125 -5.65625 -11.03125 -9.015625q-6.25 -3.375 -14.65625 -3.375q-10.546875 0 -17.234375 5.953125q-6.6875 5.953125 -6.6875 14.75q0 8.296875 5.8125 13.578125q5.8125 5.265625 18.109375 9.265625q7.234375 2.4375 14.75 4.890625q7.515625 2.4375 13.375 4.6875q14.171875 5.46875 21.53125 15.09375q7.375 9.609375 7.375 23.859375q0 8.984375 -4.203125 17.390625q-4.1875 8.390625 -11.3125 13.96875q-7.8125 6.140625 -18.078125 9.46875q-10.25 3.328125 -23.921875 3.328125zm147.957 -3.71875l-76.859344 0l0 -7.625q2.640625 -0.1875 7.765625 -0.578125q5.1249695 -0.390625 7.0780945 -1.171875q3.609375 -1.46875 4.921875 -3.859375q1.328125 -2.390625 1.328125 -6.109375l0 -98.234375q0 -3.328125 -1.28125 -5.859375q-1.265625 -2.546875 -4.96875 -4.109375q-2.34375 -0.96875 -6.9374695 -1.984375q-4.59375 -1.03125 -7.90625 -1.421875l0 -7.625l76.859344 0l0 7.625q-2.9375 0.28125 -7.328125 0.828125q-4.390625 0.53125 -7.421875 1.515625q-3.8125 1.265625 -5.078125 3.953125q-1.265625 2.6875 -1.265625 6.09375l0 98.15625q0 3.515625 1.3125 6.0q1.3125 2.484375 5.03125 4.046875q2.046875 0.890625 6.78125 1.71875q4.734375 0.828125 7.96875 1.015625l0 7.625zm167.17578 -56.34375q-3.015625 0.28125 -5.359375 0.671875q-2.34375 0.390625 -5.859375 1.5625q-4.015625 1.28125 -5.28125 4.21875q-1.265625 2.921875 -1.265625 6.140625l0 16.109375q0 4.890625 0.09375 7.875q0.09375 2.96875 0.296875 7.359375q-9.765625 5.859375 -28.859375 11.046875q-19.09375 5.171875 -35.109375 5.171875q-15.03125 0 -28.21875 -4.59375q-13.1875 -4.59375 -23.140625 -13.765625q-9.96875 -9.09375 -15.6875 -22.5625q-5.703125 -13.484375 -5.703125 -30.859375q0 -16.21875 5.359375 -29.984375q5.375 -13.765625 15.53125 -23.734375q9.96875 -9.859375 24.265625 -15.21875q14.3125 -5.375 31.703125 -5.375q11.8125 0 21.859375 2.875q10.0625 2.875 16.609375 6.203125l6.0625 -5.375l8.484375 0l0.890625 50.59375l-8.59375 0q-7.421875 -22.765625 -17.78125 -33.796875q-10.34375 -11.03125 -26.171875 -11.03125q-18.75 0 -28.953125 16.40625q-10.203125 16.40625 -10.203125 45.21875q0 30.5625 10.0 47.84375q10.015625 17.28125 28.375 17.28125q8.59375 0 15.28125 -2.578125q6.6875 -2.59375 10.40625 -6.015625l0 -28.125q0 -3.515625 -1.28125 -5.90625q-1.265625 -2.390625 -5.0625 -4.140625q-2.9375 -1.375 -7.328125 -2.25q-4.390625 -0.875 -7.328125 -1.265625l0 -7.625l71.96875 0l0 7.625zm166.3164 -74.609375q-2.734375 0.28125 -7.8125 1.0625q-5.078125 0.78125 -9.1875 3.8125q-3.609375 2.640625 -5.125 9.046875q-1.515625 6.390625 -1.515625 18.78125l0 99.03125l-17.375 0l-86.328125 -107.125l0 65.03125q0 12.109375 1.609375 18.40625q1.609375 6.296875 5.21875 9.234375q2.640625 2.140625 8.40625 3.8125q5.765625 1.65625 9.171875 2.234375l0 7.625l-59.5625 0l0 -7.625q3.8125 -0.28125 8.734375 -1.40625q4.9375 -1.125 8.25 -3.46875q3.8125 -2.828125 5.21875 -8.546875q1.421875 -5.71875 1.421875 -19.1875l0 -65.625q0 -4.890625 -1.515625 -9.234375q-1.5 -4.34375 -4.734375 -7.46875q-3.40625 -3.3125 -7.859375 -5.21875q-4.4375 -1.90625 -10.109375 -2.984375l0 -7.8125l52.15625 0l75.78125 93.75l0 -52.4375q0 -12.5 -1.671875 -18.59375q-1.65625 -6.109375 -5.265625 -9.046875q-2.828125 -2.25 -8.40625 -3.859375q-5.5625 -1.609375 -8.96875 -2.1875l0 -7.625l59.46875 0l0 7.625zm125.089905 129.96875l-20.984436 0l0 37.015625l-32.71875 0l0 -37.015625l-64.65625 0l0 -17.96875l70.125 -88.765625l27.25 0l0 86.140625l20.984436 0l0 20.59375zm-53.703186 -20.59375l0 -62.796875l-49.703125 62.796875l49.703125 0zm213.47662 -109.375q-3.515625 0.390625 -6.453125 1.265625q-2.921875 0.875 -5.5625 2.4375q-4.203125 2.34375 -7.46875 6.015625q-3.265625 3.65625 -6.390625 8.140625q-6.359375 9.28125 -13.34375 20.171875q-6.96875 10.890625 -15.171875 23.96875q-5.375 8.3125 -6.59375 12.75q-1.21875 4.4375 -1.21875 15.375l0 19.640625q0 3.515625 1.3125 6.15625q1.3125 2.625 5.03125 4.28125q1.65625 0.6875 7.03125 1.8125q5.375 1.125 7.90625 1.3125l0 7.625l-77.25 0l0 -7.625q2.734375 -0.1875 7.859375 -0.765625q5.140625 -0.59375 7.1875 -1.375q3.609375 -1.5625 4.921875 -4.140625q1.328125 -2.59375 1.328125 -6.3125l0 -24.40625q0 -3.234375 -0.109375 -5.671875q-0.09375 -2.4375 -0.671875 -4.09375q-0.6875 -1.859375 -2.34375 -4.734375q-1.65625 -2.890625 -4.296875 -7.484375q-7.515625 -13.171875 -14.546875 -24.984375q-7.03125 -11.828125 -13.390625 -22.171875q-3.3125 -5.375 -6.6875 -8.640625q-3.359375 -3.28125 -6.875 -5.328125q-2.640625 -1.46875 -6.40625 -2.25q-3.765625 -0.78125 -6.78125 -0.96875l0 -7.625l79.390625 0l0 7.625q-10.9375 0.28125 -14.75 1.515625q-3.796875 1.21875 -3.796875 3.359375q0 1.078125 1.40625 4.296875q1.421875 3.21875 5.03125 9.96875q3.328125 6.34375 9.71875 17.484375q6.390625 11.125 15.375 26.0625q18.5625 -29.390625 25.484375 -41.0625q6.9375 -11.671875 6.9375 -14.3125q0 -3.3125 -4.046875 -5.0625q-4.046875 -1.765625 -13.140625 -2.25l0 -7.625l51.375 0l0 7.625zm128.1211 7.8125q10.25 9.375 16.25 22.65625q6.015625 13.28125 6.015625 30.265625q0 15.140625 -5.078125 28.8125q-5.078125 13.671875 -14.640625 23.53125q-10.0625 10.25 -23.640625 15.96875q-13.578125 5.71875 -32.328125 5.71875q-15.125 0 -28.609375 -4.984375q-13.46875 -4.984375 -23.734375 -14.453125q-10.15625 -9.28125 -16.109375 -22.5625q-5.953125 -13.28125 -5.953125 -29.59375q0 -16.984375 5.8125 -30.796875q5.8125 -13.828125 15.96875 -23.6875q10.046875 -9.671875 23.859375 -14.890625q13.828125 -5.234375 29.453125 -5.234375q15.53125 0 29.15625 5.078125q13.625 5.078125 23.578125 14.171875zm-25.09375 99.109375q4.390625 -8.875 6.34375 -20.109375q1.953125 -11.234375 1.953125 -25.390625q0 -12.015625 -1.71875 -23.390625q-1.703125 -11.375 -5.796875 -20.265625q-4.203125 -8.890625 -11.140625 -14.25q-6.921875 -5.375 -17.28125 -5.375q-17.671875 0 -26.859375 16.75q-9.171875 16.75 -9.171875 47.3125q0 12.984375 2.0 24.515625q2.0 11.515625 6.296875 20.109375q4.390625 8.6875 11.125 13.53125q6.75 4.828125 16.609375 4.828125q9.671875 0 16.59375 -4.875q6.9375 -4.890625 11.046875 -13.390625zm220.60547 -106.921875q-2.828125 0.28125 -8.15625 1.3125q-5.328125 1.03125 -8.9375 3.5625q-3.703125 2.4375 -5.21875 8.796875q-1.515625 6.34375 -1.515625 19.03125l0 51.5625q0 22.765625 -15.4375 36.640625q-15.421875 13.859375 -40.8125 13.859375q-29.59375 0 -45.8125 -13.375q-16.203125 -13.390625 -16.203125 -37.3125l0 -70.90625q0 -3.40625 -1.328125 -5.84375q-1.3125 -2.453125 -5.015625 -4.40625q-2.546875 -1.265625 -6.265625 -2.046875q-3.703125 -0.78125 -6.046875 -1.078125l0 -7.421875l72.65625 0l0 7.421875q-3.125 0.203125 -6.34375 0.734375q-3.21875 0.53125 -6.546875 1.609375q-3.703125 1.171875 -4.984375 3.90625q-1.265625 2.734375 -1.265625 6.15625l0 69.921875q0 20.609375 9.078125 29.984375q9.09375 9.375 26.375 9.375q17.0 0 26.65625 -10.34375q9.671875 -10.359375 9.671875 -30.484375l0 -46.96875q0 -12.5 -1.71875 -18.703125q-1.703125 -6.203125 -5.21875 -8.9375q-2.53125 -2.140625 -8.828125 -3.890625q-6.296875 -1.765625 -8.84375 -2.15625l0 -7.625l60.0625 0l0 7.625z" fill-rule="nonzero"/><path fill="#000000" fill-opacity="0.0" d="m45.986877 355.41208l1487.4016 0l0 224.31497l-1487.4016 0z" fill-rule="evenodd"/><path fill="#ffffff" d="m173.492 533.42957l-24.171875 0l-9.625 -28.71875l-2.953125 -9.984375l-2.9375 10.25l-9.28125 28.453125l-24.25 0l-12.84375 -90.609375l20.6875 0l6.515625 51.1875l1.515625 14.0l3.65625 -12.578125l9.09375 -27.546875l16.59375 0l9.71875 27.375l4.1875 12.9375l1.6875 -14.359375l5.453125 -51.015625l19.703125 0l-12.75 90.609375zm104.97214 -52.265625q0 2.234375 -0.140625 5.796875q-0.125 3.5625 -0.390625 6.6875l-59.578125 0q0 5.984375 1.828125 10.53125q1.828125 4.546875 5.171875 7.625q3.34375 3.078125 8.015625 4.6875q4.6875 1.59375 10.40625 1.59375q6.59375 0 14.125 -1.015625q7.546875 -1.03125 15.65625 -3.34375l0 17.296875q-3.484375 0.984375 -7.59375 1.78125q-4.09375 0.796875 -8.375 1.421875q-4.28125 0.625 -8.65625 0.9375q-4.359375 0.3125 -8.46875 0.3125q-10.34375 0 -18.546875 -2.9375q-8.203125 -2.9375 -13.921875 -8.6875q-5.703125 -5.765625 -8.734375 -14.234375q-3.03125 -8.46875 -3.03125 -19.625q0 -11.0625 3.03125 -20.109375q3.03125 -9.046875 8.5625 -15.515625q5.53125 -6.46875 13.421875 -9.984375q7.890625 -3.53125 17.625 -3.53125q9.625 0 17.03125 3.0q7.40625 2.984375 12.390625 8.328125q5.0 5.34375 7.578125 12.75q2.59375 7.40625 2.59375 16.234375zm-22.125 -3.125q0.09375 -5.34375 -1.34375 -9.3125q-1.421875 -3.96875 -3.875 -6.546875q-2.4375 -2.59375 -5.703125 -3.84375q-3.25 -1.25 -7.0 -1.25q-8.203125 0 -13.46875 5.484375q-5.265625 5.484375 -6.234375 15.46875l37.625 0zm125.14401 8.484375q0 12.484375 -3.53125 21.578125q-3.515625 9.09375 -9.8125 15.125q-6.28125 6.015625 -14.84375 8.921875q-8.5625 2.890625 -18.640625 2.890625q-9.90625 0 -18.421875 -1.484375q-8.515625 -1.46875 -16.28125 -3.953125l0 -122.1875l21.765625 0l0 29.609375l-0.890625 17.828125q4.90625 -6.328125 11.453125 -10.15625q6.5625 -3.84375 15.75 -3.84375q8.03125 0 14.265625 3.21875q6.25 3.203125 10.484375 9.140625q4.234375 5.921875 6.46875 14.359375q2.234375 8.421875 2.234375 18.953125zm-22.84375 0.890625q0 -7.5 -1.078125 -12.75q-1.0625 -5.265625 -3.078125 -8.65625q-2.0 -3.390625 -4.90625 -4.953125q-2.890625 -1.5625 -6.625 -1.5625q-5.53125 0 -10.578125 4.46875q-5.03125 4.453125 -10.65625 12.125l0 39.59375q2.59375 0.984375 6.375 1.609375q3.796875 0.625 7.71875 0.625q5.171875 0 9.40625 -2.140625q4.234375 -2.140625 7.21875 -6.0625q3.0 -3.921875 4.59375 -9.578125q1.609375 -5.671875 1.609375 -12.71875zm199.16302 46.015625l-0.53125 -13.375q-2.859375 3.46875 -5.890625 6.328125q-3.03125 2.859375 -6.515625 4.875q-3.46875 2.0 -7.4375 3.109375q-3.96875 1.109375 -8.796875 1.109375q-8.015625 0 -14.265625 -3.203125q-6.25 -3.21875 -10.484375 -9.140625q-4.234375 -5.9375 -6.46875 -14.40625q-2.21875 -8.46875 -2.21875 -18.90625q0 -12.484375 3.515625 -21.625q3.53125 -9.140625 9.765625 -15.15625q6.25 -6.03125 14.8125 -8.921875q8.5625 -2.90625 18.640625 -2.90625q3.390625 0 6.8125 0.453125q3.4375 0.4375 6.109375 1.15625l0 -35.40625l21.765625 0l0 126.015625l-18.8125 0zm-39.78125 -44.59375q0 7.484375 1.015625 12.796875q1.03125 5.3125 3.03125 8.703125q2.015625 3.390625 4.953125 4.953125q2.953125 1.546875 6.703125 1.546875q5.53125 0 10.515625 -4.453125q5.0 -4.453125 10.609375 -12.21875l0 -39.59375q-2.578125 -0.984375 -6.375 -1.609375q-3.78125 -0.625 -7.625 -0.625q-5.25 0 -9.453125 2.140625q-4.1875 2.140625 -7.171875 6.0625q-2.984375 3.921875 -4.59375 9.59375q-1.609375 5.65625 -1.609375 12.703125zm162.14404 -7.671875q0 2.234375 -0.140625 5.796875q-0.125 3.5625 -0.390625 6.6875l-59.578125 0q0 5.984375 1.828125 10.53125q1.828125 4.546875 5.171875 7.625q3.34375 3.078125 8.015625 4.6875q4.6875 1.59375 10.40625 1.59375q6.59375 0 14.125 -1.015625q7.546875 -1.03125 15.65625 -3.34375l0 17.296875q-3.484375 0.984375 -7.59375 1.78125q-4.09375 0.796875 -8.375 1.421875q-4.28125 0.625 -8.65625 0.9375q-4.359375 0.3125 -8.46875 0.3125q-10.34375 0 -18.546875 -2.9375q-8.203125 -2.9375 -13.921875 -8.6875q-5.703125 -5.765625 -8.734375 -14.234375q-3.03125 -8.46875 -3.03125 -19.625q0 -11.0625 3.03125 -20.109375q3.03125 -9.046875 8.5625 -15.515625q5.53125 -6.46875 13.421875 -9.984375q7.890625 -3.53125 17.625 -3.53125q9.625 0 17.03125 3.0q7.40625 2.984375 12.390625 8.328125q5.0 5.34375 7.578125 12.75q2.59375 7.40625 2.59375 16.234375zm-22.125 -3.125q0.09375 -5.34375 -1.34375 -9.3125q-1.421875 -3.96875 -3.875 -6.546875q-2.4375 -2.59375 -5.703125 -3.84375q-3.25 -1.25 -7.0 -1.25q-8.203125 0 -13.46875 5.484375q-5.265625 5.484375 -6.234375 15.46875l37.625 0zm94.28461 55.390625l-25.0625 0l-35.953125 -90.609375l24.265625 0l18.8125 51.359375l5.625 16.59375l5.53125 -15.875l19.0 -52.078125l23.359375 0l-35.578125 90.609375zm128.69086 -52.265625q0 2.234375 -0.140625 5.796875q-0.125 3.5625 -0.390625 6.6875l-59.578125 0q0 5.984375 1.828125 10.53125q1.828125 4.546875 5.171875 7.625q3.34375 3.078125 8.015625 4.6875q4.6875 1.59375 10.40625 1.59375q6.59375 0 14.125 -1.015625q7.546875 -1.03125 15.65625 -3.34375l0 17.296875q-3.484375 0.984375 -7.59375 1.78125q-4.09375 0.796875 -8.375 1.421875q-4.28125 0.625 -8.65625 0.9375q-4.359375 0.3125 -8.46875 0.3125q-10.34375 0 -18.546875 -2.9375q-8.203125 -2.9375 -13.921875 -8.6875q-5.703125 -5.765625 -8.734375 -14.234375q-3.03125 -8.46875 -3.03125 -19.625q0 -11.0625 3.03125 -20.109375q3.03125 -9.046875 8.5625 -15.515625q5.53125 -6.46875 13.421875 -9.984375q7.890625 -3.53125 17.625 -3.53125q9.625 0 17.03125 3.0q7.40625 2.984375 12.390625 8.328125q5.0 5.34375 7.578125 12.75q2.59375 7.40625 2.59375 16.234375zm-22.125 -3.125q0.09375 -5.34375 -1.34375 -9.3125q-1.421875 -3.96875 -3.875 -6.546875q-2.4375 -2.59375 -5.703125 -3.84375q-3.25 -1.25 -7.0 -1.25q-8.203125 0 -13.46875 5.484375q-5.265625 5.484375 -6.234375 15.46875l37.625 0zm72.87842 -53.6875l-25.609375 0l0 -16.9375l47.90625 0l0 109.0625l26.125 0l0 16.953125l-77.140625 0l0 -16.953125l28.71875 0l0 -92.125zm152.76898 63.0625q0 10.703125 -3.03125 19.578125q-3.03125 8.875 -8.75 15.203125q-5.703125 6.328125 -14.0 9.8125q-8.28125 3.46875 -18.890625 3.46875q-10.078125 0 -18.031189 -2.9375q-7.9375 -2.9375 -13.46875 -8.78125q-5.515625 -5.84375 -8.46875 -14.625q-2.9375 -8.796875 -2.9375 -20.46875q0 -10.796875 3.078125 -19.625q3.078125 -8.828125 8.828125 -15.0625q5.75 -6.25 14.046875 -9.6875q8.296814 -3.4375 18.734314 -3.4375q10.15625 0 18.09375 3.0q7.9375 2.984375 13.46875 8.875q5.53125 5.875 8.421875 14.578125q2.90625 8.6875 2.90625 20.109375zm-22.65625 0.53125q0 -14.09375 -5.3125 -21.1875q-5.296875 -7.09375 -15.640625 -7.09375q-5.703125 0 -9.71875 2.234375q-4.015625 2.234375 -6.609375 6.109375q-2.578064 3.875 -3.781189 9.0625q-1.203125 5.171875 -1.203125 11.046875q0 14.1875 5.703064 21.375q5.703125 7.171875 15.609375 7.171875q5.4375 0 9.453125 -2.1875q4.015625 -2.1875 6.515625 -6.0625q2.5 -3.875 3.734375 -9.140625q1.25 -5.265625 1.25 -11.328125zm123.00342 -1.421875q0 12.484375 -3.53125 21.578125q-3.515625 9.09375 -9.8125 15.125q-6.28125 6.015625 -14.84375 8.921875q-8.5625 2.890625 -18.640625 2.890625q-3.390625 0 -6.78125 -0.453125q-3.390625 -0.4375 -6.15625 -1.15625l0 35.40625l-21.765625 0l0 -126.015625l18.828125 0l0.53125 13.375q2.765625 -3.484375 5.75 -6.328125q2.984375 -2.859375 6.46875 -4.859375q3.484375 -2.015625 7.484375 -3.078125q4.015625 -1.078125 9.015625 -1.078125q8.03125 0 14.265625 3.21875q6.25 3.203125 10.484375 9.140625q4.234375 5.921875 6.46875 14.359375q2.234375 8.421875 2.234375 18.953125zm-22.84375 0.890625q0 -7.5 -1.078125 -12.75q-1.0625 -5.265625 -3.078125 -8.65625q-2.0 -3.390625 -4.90625 -4.953125q-2.890625 -1.5625 -6.625 -1.5625q-5.53125 0 -10.578125 4.46875q-5.03125 4.453125 -10.65625 12.125l0 39.59375q2.59375 0.984375 6.375 1.609375q3.796875 0.625 7.71875 0.625q5.171875 0 9.40625 -2.140625q4.234375 -2.140625 7.21875 -6.0625q3.0 -3.921875 4.59375 -9.578125q1.609375 -5.671875 1.609375 -12.71875zm120.67529 -6.25q0 2.234375 -0.140625 5.796875q-0.125 3.5625 -0.390625 6.6875l-59.578125 0q0 5.984375 1.828125 10.53125q1.828125 4.546875 5.171875 7.625q3.34375 3.078125 8.015625 4.6875q4.6875 1.59375 10.40625 1.59375q6.59375 0 14.125 -1.015625q7.546875 -1.03125 15.65625 -3.34375l0 17.296875q-3.484375 0.984375 -7.59375 1.78125q-4.09375 0.796875 -8.375 1.421875q-4.28125 0.625 -8.65625 0.9375q-4.359375 0.3125 -8.46875 0.3125q-10.34375 0 -18.546875 -2.9375q-8.203125 -2.9375 -13.921875 -8.6875q-5.703125 -5.765625 -8.734375 -14.234375q-3.03125 -8.46875 -3.03125 -19.625q0 -11.0625 3.03125 -20.109375q3.03125 -9.046875 8.5625 -15.515625q5.53125 -6.46875 13.421875 -9.984375q7.890625 -3.53125 17.625 -3.53125q9.625 0 17.03125 3.0q7.40625 2.984375 12.390625 8.328125q5.0 5.34375 7.578125 12.75q2.59375 7.40625 2.59375 16.234375zm-22.125 -3.125q0.09375 -5.34375 -1.34375 -9.3125q-1.421875 -3.96875 -3.875 -6.546875q-2.4375 -2.59375 -5.703125 -3.84375q-3.25 -1.25 -7.0 -1.25q-8.203125 0 -13.46875 5.484375q-5.265625 5.484375 -6.234375 15.46875l37.625 0zm101.94092 0q0.1875 -5.078125 -0.484375 -8.640625q-0.671875 -3.578125 -2.140625 -5.890625q-1.46875 -2.3125 -3.609375 -3.375q-2.140625 -1.078125 -4.90625 -1.078125q-4.8125 0 -9.953125 3.96875q-5.125 3.96875 -11.28125 13.0625l0 57.34375l-22.296875 0l0 -90.609375l19.71875 0l0.796875 13.1875q2.234375 -3.46875 5.046875 -6.234375q2.8125 -2.765625 6.234375 -4.765625q3.4375 -2.015625 7.625 -3.078125q4.203125 -1.078125 9.1875 -1.078125q6.875 0 12.171875 2.375q5.3125 2.359375 8.921875 7.0q3.609375 4.625 5.34375 11.625q1.75 7.0 1.484375 16.1875l-21.859375 0zm116.84717 28.71875q0 7.765625 -3.4375 13.25q-3.4375 5.484375 -9.109375 8.921875q-5.65625 3.4375 -12.84375 4.984375q-7.171875 1.5625 -14.65625 1.5625q-9.984375 0 -18.015625 -0.9375q-8.03125 -0.9375 -15.171875 -2.71875l0 -19.625q8.390625 3.484375 16.71875 5.046875q8.34375 1.5625 15.75 1.5625q8.5625 0 12.796875 -2.71875q4.234375 -2.71875 4.234375 -7.09375q0 -2.046875 -0.890625 -3.734375q-0.890625 -1.703125 -3.34375 -3.265625q-2.453125 -1.5625 -6.921875 -3.203125q-4.453125 -1.65625 -11.671875 -3.703125q-6.6875 -1.875 -11.734375 -4.234375q-5.03125 -2.375 -8.328125 -5.578125q-3.296875 -3.21875 -4.953125 -7.453125q-1.65625 -4.234375 -1.65625 -9.9375q0 -5.53125 2.5 -10.4375q2.5 -4.90625 7.453125 -8.609375q4.953125 -3.703125 12.34375 -5.84375q7.40625 -2.140625 17.3125 -2.140625q8.5625 0 15.15625 0.890625q6.609375 0.890625 11.6875 1.96875l0 17.75q-7.765625 -2.5 -14.59375 -3.515625q-6.8125 -1.03125 -13.5 -1.03125q-6.6875 0 -10.75 2.40625q-4.0625 2.40625 -4.0625 6.6875q0 2.046875 0.796875 3.65625q0.8125 1.609375 3.171875 3.125q2.375 1.515625 6.609375 3.171875q4.234375 1.640625 11.1875 3.59375q7.84375 2.234375 13.1875 4.78125q5.359375 2.53125 8.609375 5.75q3.265625 3.203125 4.6875 7.3125q1.4375 4.109375 1.4375 9.359375z" fill-rule="nonzero"/></g></svg>